<svg width="350" height="350" viewBox="0 0 350 350" fill="none" xmlns="http://www.w3.org/2000/svg">
<path d="M174.218 67.3821C244.99 63.7296 279.629 114.899 288.103 140.941L290.137 191.164C290.137 258.127 260.723 287.134 238.014 301C232.93 312.161 239.295 318.496 244.379 319.003C322.472 282.883 338.944 201.14 337.419 164.784C338.233 103.096 295.39 56.5601 273.867 41.0029C272.647 57.6423 258.107 59.4347 250.989 58.2509C221.297 42.829 188.624 48.2871 174.219 51.5C166.514 56 169.304 65.353 174.218 67.3821Z" fill="white"/>
<circle cx="264.022" cy="165.974" r="36.3557" fill="white"/>
<path d="M261.74 226.893C230.797 288.889 170.577 293.752 144.334 288.435L100.608 266C43.6108 233.781 33.8293 190.944 32.9535 164.943C25.9003 155.246 16.6899 161.46 13.8118 165.543C6.981 249.391 68.6316 302.743 100.311 318.938C152.425 349.312 212.649 335.237 236.247 324.403C222.671 315.359 228.142 302.12 232.574 296.631C259.987 278.779 271.818 249.307 276.014 235.5C271.684 223.002 265.832 223.687 261.74 226.893Z" fill="white"/>
<circle cx="134.612" cy="255.892" r="35.5467" transform="rotate(119.479 134.612 255.892)" fill="white"/>
<path d="M88.029 224.269C47.9405 166.978 72.6191 111.225 89.9695 90.5093L130.918 62.5274C186.936 27.4868 229.638 39.4342 253.121 51.1752C265.117 49.5881 264.04 38.4275 261.804 33.909C190.725 -12.517 113.724 16.4776 84.1091 36.7781C32.0799 68.3775 15.5693 128.568 13.8177 154.713C28.3756 147.027 37.4838 158.253 40.2181 164.826C42.8541 197.734 63.9642 226.699 74.1897 237.068C87.3595 239.244 88.9033 229.442 88.029 224.269Z" fill="white"/>
<circle cx="116.869" cy="100.356" r="36.3557" fill="white"/>
</svg>
