<svg width="160" height="160" viewBox="0 0 160 160" fill="none" xmlns="http://www.w3.org/2000/svg">
<path d="M27.0287 108.557L82.2323 140.43L85.0922 135.477L29.8887 103.604L27.0287 108.557Z" fill="white"/>
<path d="M74.9834 25.4887L130.187 57.3614L133.047 52.408L77.8433 20.5353L74.9834 25.4887Z" fill="white"/>
<path d="M39.2342 52.9011L36.2848 57.8018L122.27 109.551L125.219 104.65L39.2342 52.9011Z" fill="white"/>
<path d="M130.869 48.5943H125.149V112.34H130.869V48.5943Z" fill="white"/>
<path d="M78.7585 133.681L81.2566 138.008L129.269 110.287L126.771 105.96L78.7585 133.681Z" fill="white"/>
<path d="M138.449 114.201C135.141 119.955 127.767 121.919 122.013 118.611C116.259 115.303 114.295 107.929 117.602 102.175C120.91 96.4208 128.284 94.4568 134.038 97.7646C139.827 101.107 141.791 108.446 138.449 114.201Z" fill="white"/>
<path d="M42.4522 58.7586C39.1443 64.5129 31.7705 66.477 26.0162 63.1691C20.2619 59.8612 18.2978 52.4874 21.6057 46.7331C24.9136 40.9788 32.2874 39.0147 38.0417 42.3226C43.796 45.6649 45.7601 53.0043 42.4522 58.7586Z" fill="white"/>
<path d="M21.6409 114.201C18.3331 108.446 20.2971 101.107 26.0514 97.7646C31.8057 94.4568 39.1451 96.4208 42.4874 102.175C45.7953 107.929 43.8312 115.269 38.0769 118.611C32.2881 121.919 24.9488 119.955 21.6409 114.201Z" fill="white"/>
<path d="M117.638 58.7586C114.33 53.0043 116.294 45.6649 122.048 42.3226C127.802 39.0147 135.142 40.9788 138.484 46.7331C141.792 52.4874 139.828 59.8268 134.074 63.1691C128.319 66.477 120.946 64.5129 117.638 58.7586Z" fill="white"/>
<path d="M80.0444 147.933C73.3942 147.933 68.0189 142.557 68.0189 135.907C68.0189 129.257 73.3942 123.882 80.0444 123.882C86.6946 123.882 92.0699 129.257 92.0699 135.907C92.0699 142.523 86.6946 147.933 80.0444 147.933Z" fill="white"/>
<path d="M94.202 24.6011C94.202 32.6651 87.6649 39.2022 79.601 39.2022C71.5371 39.2022 65 32.6651 65 24.6011C65 16.5372 71.5371 10.0001 79.601 10.0001C87.6649 10.0001 94.202 16.5372 94.202 24.6011Z" fill="white"/>
</svg>
