<svg width="160" height="160" viewBox="0 0 160 160" fill="none" xmlns="http://www.w3.org/2000/svg">
<path d="M80.634 38.2217C108.097 36.8044 121.538 56.6606 124.827 66.7658L125.616 86.2547C125.616 112.24 114.202 123.496 105.39 128.876C103.417 133.207 105.887 135.666 107.86 135.862C138.163 121.846 144.555 90.1262 143.964 76.0182C144.279 52.0805 127.654 34.0223 119.302 27.9854C118.829 34.4422 113.187 35.1377 110.425 34.6784C98.9029 28.694 86.2239 30.812 80.634 32.0587C77.6442 33.8049 78.7269 37.4343 80.634 38.2217Z" fill="white"/>
<path d="M129.589 76.4806C129.589 84.2721 123.273 90.5884 115.482 90.5884C107.69 90.5884 101.374 84.2721 101.374 76.4806C101.374 68.6892 107.69 62.3729 115.482 62.3729C123.273 62.3729 129.589 68.6892 129.589 76.4806Z" fill="white"/>
<path d="M114.597 100.12C102.59 124.177 79.2212 126.065 69.0378 124.001L52.0699 115.296C29.9525 102.793 26.1568 86.1702 25.8169 76.0806C23.08 72.3176 19.5059 74.7289 18.389 76.3134C15.7384 108.851 39.6617 129.554 51.9547 135.838C72.1777 147.624 95.5473 142.163 104.704 137.959C99.4362 134.449 101.559 129.312 103.279 127.182C113.917 120.254 118.508 108.818 120.136 103.46C118.455 98.6102 116.185 98.8758 114.597 100.12Z" fill="white"/>
<path d="M58.4769 123.381C51.8451 119.633 49.508 111.217 53.257 104.585C57.0059 97.9536 65.4211 95.6165 72.053 99.3655C78.6848 103.114 81.0218 111.53 77.2729 118.161C73.524 124.793 65.1087 127.13 58.4769 123.381Z" fill="white"/>
<path d="M47.1878 99.1012C31.6316 76.8696 41.208 55.2347 47.9408 47.1961L63.8309 36.3379C85.5682 22.7404 102.139 27.3766 111.251 31.9327C115.906 31.3168 115.488 26.9859 114.621 25.2325C87.0385 7.2171 57.1588 18.4683 45.6667 26.3459C25.4769 38.6079 19.07 61.9646 18.3903 72.1102C24.0395 69.1276 27.5739 73.4837 28.6349 76.0346C29.6578 88.8044 37.8495 100.044 41.8175 104.068C46.928 104.912 47.5271 101.109 47.1878 99.1012Z" fill="white"/>
<path d="M72.4868 51.0165C72.4868 58.808 66.1705 65.1242 58.379 65.1242C50.5876 65.1242 44.2713 58.808 44.2713 51.0165C44.2713 43.225 50.5876 36.9088 58.379 36.9088C66.1705 36.9088 72.4868 43.225 72.4868 51.0165Z" fill="white"/>
</svg>
